<?xml version="1.0" encoding="UTF-8" standalone="no"?>
<!-- Created with Inkscape (http://www.inkscape.org/) -->

<svg
   width="100"
   height="100"
   viewBox="0 0 26.458333 26.458333"
   version="1.1"
   id="svg1"
   xml:space="preserve"
   inkscape:version="1.3.2 (091e20ef0f, 2023-11-25, custom)"
   sodipodi:docname="logo ctrl.svg"
   xmlns:inkscape="http://www.inkscape.org/namespaces/inkscape"
   xmlns:sodipodi="http://sodipodi.sourceforge.net/DTD/sodipodi-0.dtd"
   xmlns:xlink="http://www.w3.org/1999/xlink"
   xmlns="http://www.w3.org/2000/svg"
   xmlns:svg="http://www.w3.org/2000/svg"><sodipodi:namedview
     id="namedview1"
     pagecolor="#ffffff"
     bordercolor="#000000"
     borderopacity="0.25"
     inkscape:showpageshadow="2"
     inkscape:pageopacity="0.0"
     inkscape:pagecheckerboard="0"
     inkscape:deskcolor="#d1d1d1"
     inkscape:document-units="mm"
     inkscape:zoom="2.8679438"
     inkscape:cx="64.157464"
     inkscape:cy="26.499822"
     inkscape:window-width="1366"
     inkscape:window-height="696"
     inkscape:window-x="0"
     inkscape:window-y="0"
     inkscape:window-maximized="1"
     inkscape:current-layer="layer1" /><defs
     id="defs1"><linearGradient
       id="linearGradient2"
       inkscape:collect="always"><stop
         style="stop-color:#ff34ba;stop-opacity:1;"
         offset="0"
         id="stop3" /><stop
         style="stop-color:#0057ff;stop-opacity:1;"
         offset="1"
         id="stop2" /></linearGradient><linearGradient
       inkscape:collect="always"
       xlink:href="#linearGradient2"
       id="linearGradient3"
       x1="2.2250178"
       y1="5.8861723"
       x2="23.71129"
       y2="21.299849"
       gradientUnits="userSpaceOnUse" /></defs><g
     inkscape:label="Camada 1"
     inkscape:groupmode="layer"
     id="layer1"><circle
       style="fill:url(#linearGradient3);stroke-width:0.341"
       id="path1"
       cx="13.229166"
       cy="13.229166"
       r="13.229166" /><path
       style="fill:#1d1d1d;fill-opacity:1;stroke-width:0.0352539"
       d="m 8.2298269,16.899699 c -0.01795,-0.002 -0.091372,-0.0082 -0.1632325,-0.01371 -0.6501109,-0.04981 -1.3148048,-0.253 -1.8755617,-0.573315 C 6.1401239,16.283589 6.0271105,16.212135 5.9398964,16.153878 5.2769264,15.711035 4.7803126,15.113387 4.5095429,14.432494 4.2550498,13.792545 4.2073558,13.092371 4.3729512,12.427426 4.5171082,11.848557 4.8054729,11.338412 5.2441704,10.886163 5.7225403,10.39301 6.3040968,10.034572 7.0032403,9.8019753 7.7049191,9.5685384 8.3869139,9.5048862 9.1485877,9.6017447 10.18448,9.7334726 11.066043,10.167735 11.937546,10.975595 c 0.224455,0.208068 0.551549,0.548655 0.820828,0.854691 0.05131,0.0583 0.09766,0.110615 0.102933,0.116243 0.005,0.0056 0.07221,0.08369 0.1487,0.173467 0.07646,0.08978 0.162615,0.190517 0.191405,0.223863 0.0717,0.08308 0.205714,0.242722 0.485347,0.578312 0.651257,0.781587 1.000803,1.178091 1.319662,1.496975 0.701811,0.701859 1.337978,1.095502 2.065588,1.278146 0.323706,0.08125 0.610022,0.111361 0.98911,0.104009 0.328859,-0.0064 0.533538,-0.0319 0.806843,-0.100611 1.117579,-0.280964 1.970513,-1.076627 2.173115,-2.02721 0.05943,-0.278984 0.06237,-0.569724 0.0081,-0.849252 -0.196434,-1.019577 -1.159695,-1.878416 -2.363525,-2.107313 -0.232335,-0.04418 -0.329366,-0.05339 -0.615621,-0.05848 -0.217701,-0.0038 -0.3082,-0.0016 -0.433323,0.01081 -0.687694,0.06827 -1.32739,0.309807 -1.875257,0.708044 -0.38715,0.281411 -0.793467,0.670265 -1.28073,1.225667 -0.06429,0.07325 -0.119748,0.132013 -0.123297,0.130587 -0.0041,-0.0014 -0.05192,-0.05717 -0.107537,-0.123854 -0.05557,-0.06669 -0.191557,-0.227899 -0.302147,-0.358239 -0.330653,-0.389726 -0.302978,-0.353951 -0.287817,-0.372072 0.20252,-0.2421 0.648276,-0.703912 0.902931,-0.935455 0.662523,-0.602404 1.334874,-0.9880212 2.094044,-1.2010133 1.073657,-0.3012237 2.183387,-0.2373718 3.16556,0.1821397 0.727185,0.3105996 1.382437,0.8445386 1.789352,1.4580596 0.283162,0.42694 0.46971,0.905454 0.538182,1.380485 0.03864,0.268069 0.04289,0.607511 0.01065,0.85814 -0.131278,1.02129 -0.730216,1.936317 -1.670091,2.55149 -0.620266,0.405983 -1.323374,0.642821 -2.122023,0.71479 -0.07606,0.0069 -0.249594,0.01184 -0.396429,0.01141 -1.143956,-0.0034 -2.107582,-0.335575 -3.003485,-1.035272 C 14.570898,15.55353 14.086342,15.073771 13.565795,14.475213 13.37943,14.260909 13.016893,13.83209 12.805378,13.575763 12.604106,13.331844 12.239044,12.902326 12.008312,12.637947 11.119203,11.619198 10.440484,11.102358 9.6445124,10.837935 9.410788,10.760295 9.20116,10.713327 8.9257154,10.676895 c -0.1565397,-0.02071 -0.697866,-0.02356 -0.8362019,-0.0044 -0.6232774,0.0863 -1.1321722,0.274246 -1.6070941,0.59354 -0.3024305,0.203328 -0.6130753,0.522406 -0.7847757,0.806079 -0.3209787,0.530292 -0.4098459,1.132983 -0.2528908,1.714933 0.075248,0.278906 0.2475565,0.614512 0.4342659,0.845706 0.104505,0.129418 0.2272032,0.259835 0.3256538,0.346154 0.619809,0.543444 1.3934193,0.827606 2.2532803,0.827671 0.5132965,3.6e-5 0.9469131,-0.08303 1.4293085,-0.273841 0.5382946,-0.212907 1.0265426,-0.562141 1.5978656,-1.142913 0.171782,-0.174626 0.380376,-0.400647 0.530323,-0.574632 0.0431,-0.04997 0.08154,-0.09084 0.08559,-0.09084 0.01095,0 0.698159,0.815978 0.706151,0.83841 0.0061,0.01839 -0.425778,0.483995 -0.684713,0.737425 -0.660637,0.646579 -1.261229,1.043131 -1.980908,1.307925 -0.371918,0.136844 -0.7731841,0.22776 -1.2079169,0.273686 -0.1303952,0.01377 -0.6288447,0.02645 -0.7042342,0.0179 z"
       id="path2" /></g></svg>
